<svg width="144" height="144" viewBox="0 0 144 144" fill="none" xmlns="http://www.w3.org/2000/svg">
<rect width="144" height="144" fill="white"/>
<path d="M96.3002 98.1L88.1924 89.9922M88.1924 89.9922C94.87 83.3147 99.0002 74.0897 99.0002 63.9C99.0002 62.0657 98.8664 60.2626 98.6079 58.5M88.1924 89.9922C83.2337 94.951 76.8703 98.5049 69.7502 100.006M75.1502 29.374C71.093 27.8397 66.6947 27 62.1002 27C51.9105 27 42.6855 31.1302 36.008 37.8078C29.3304 44.4853 25.2002 53.7103 25.2002 63.9C25.2002 72.1666 27.9185 79.7983 32.5101 85.95" stroke="black" stroke-width="5" stroke-linecap="round"/>
<path d="M118.728 108.451L104.907 94.6292C103.345 93.0671 100.812 93.0671 99.2498 94.6292L96.0391 97.8399L92.8284 101.051C91.2663 102.613 91.2663 105.145 92.8284 106.707L106.272 120.151" stroke="black" stroke-width="5" stroke-linecap="round"/>
<path d="M47.7002 82.3496V74.0996C47.7002 67.4722 53.0728 62.0996 59.7002 62.0996H64.5002C71.1276 62.0996 76.5002 67.4722 76.5002 74.0996V82.3496" stroke="black" stroke-width="5" stroke-linecap="round"/>
<ellipse cx="62.0999" cy="54.0008" rx="11.7" ry="11.7" fill="white" stroke="black" stroke-width="5"/>
<path d="M85.0501 39.1504H115.65M85.0501 46.3504H101.7M105.3 46.3504H115.65M82.1001 53.1004H119.5C120.605 53.1004 121.5 52.205 121.5 51.1004V34.4004C121.5 33.2958 120.605 32.4004 119.5 32.4004H82.1001C80.9955 32.4004 80.1001 33.2958 80.1001 34.4004V51.1004C80.1001 52.205 80.9955 53.1004 82.1001 53.1004Z" stroke="black" stroke-width="5"/>
<path d="M27.45 97.6504H58.05M27.45 104.85H44.1M47.7 104.85H58.05M24.5 111.6H61.9C63.0046 111.6 63.9 110.705 63.9 109.6V92.9004C63.9 91.7958 63.0046 90.9004 61.9 90.9004H24.5C23.3954 90.9004 22.5 91.7958 22.5 92.9004V109.6C22.5 110.705 23.3954 111.6 24.5 111.6Z" stroke="black" stroke-width="5"/>
</svg>
