<svg width="144" height="144" viewBox="0 0 144 144" fill="none" xmlns="http://www.w3.org/2000/svg">
<rect width="144" height="144" fill="white"/>
<path d="M44.2245 40.77C44.2245 40.77 44.2245 34.5109 44.2245 31.59C44.2245 28.6691 45.892 27 48.8102 27C51.7284 27 114.261 27 114.261 27M114.261 27H120.514C123.69 27.552 124.644 28.6014 125.1 31.59C125.1 31.59 125.1 38.6836 125.1 39.5182C125.1 40.3527 124.683 40.77 123.849 40.77C123.015 40.77 114.261 40.77 114.261 40.77M114.261 27V40.77M90.0816 118.8C90.0816 118.8 105.089 118.8 108.841 118.8C112.593 118.8 114.261 117.548 114.261 113.375C114.261 109.203 114.261 40.77 114.261 40.77M90.0816 118.8C90.0816 118.8 38.3881 118.8 34.2193 118.8C30.0505 118.8 28.7998 117.131 28.7998 113.375C28.7998 109.62 28.7998 104.613 28.7998 104.613H44.2245M90.0816 118.8C86.7465 118.8 84.6621 116.714 84.6621 113.375C84.6621 110.037 84.6621 104.613 84.6621 104.613H44.2245M44.2245 104.613V85.0009" stroke="black" stroke-width="5" stroke-linecap="round" stroke-linejoin="round"/>
<path d="M102.15 45.6992C103.531 45.6992 104.65 44.5799 104.65 43.1992C104.65 41.8185 103.531 40.6992 102.15 40.6992V45.6992ZM58.9502 45.6992H102.15V40.6992H58.9502V45.6992ZM102.15 58.2492H76.0502V63.2492H102.15V58.2492ZM102.15 75.7992H87.7502V80.7992H102.15V75.7992Z" fill="black"/>
<path d="M26.5367 58.0547L55.4927 87.0107L69.1752 89.8745L66.3114 76.192L37.3554 47.236M26.5367 58.0547L24.3093 55.8273C24.3093 55.8273 18.8999 50.418 24.3093 45.0086C29.7186 39.5992 35.128 45.0086 35.128 45.0086L37.3554 47.236M26.5367 58.0547L37.3554 47.236" stroke="black" stroke-width="5" stroke-linecap="round" stroke-linejoin="round"/>
</svg>
