<svg width="144" height="144" viewBox="0 0 144 144" fill="none" xmlns="http://www.w3.org/2000/svg">
<rect width="144" height="144" fill="white"/>
<path d="M33.2998 37.3504H33.7498M40.0498 37.3504H40.4998M26.9998 37.3504H27.4498M19.7998 44.5504V31.9004C19.7998 29.6913 21.5907 27.9004 23.7998 27.9004H120.2C122.409 27.9004 124.2 29.6913 124.2 31.9004V44.5504M19.7998 44.5504H68.8498M19.7998 44.5504V80.5504M124.2 44.5504H68.8498M124.2 44.5504V80.5504M124.2 44.5504L68.8498 80.5504M68.8498 44.5504V80.5504M68.8498 80.5504H19.7998M68.8498 80.5504H124.2M19.7998 80.5504V108.5C19.7998 110.71 21.5907 112.5 23.7998 112.5H120.2C122.409 112.5 124.2 110.71 124.2 108.5V80.5504M26.9998 51.7504H40.0498M26.9998 58.9504H53.9998M117.45 91.7504V102.2C117.45 104.41 115.659 106.2 113.45 106.2H65.1998C62.9907 106.2 61.1998 104.41 61.1998 102.2V91.7504C61.1998 89.5413 62.9907 87.7504 65.1998 87.7504H113.45C115.659 87.7504 117.45 89.5412 117.45 91.7504ZM53.9998 91.7504V102.2C53.9998 104.41 52.2089 106.2 49.9998 106.2H30.9998C28.7907 106.2 26.9998 104.41 26.9998 102.2V91.7504C26.9998 89.5413 28.7907 87.7504 30.9998 87.7504H49.9998C52.2089 87.7504 53.9998 89.5412 53.9998 91.7504ZM43.4248 68.4004H30.3748C28.5108 68.4004 26.9998 69.9114 26.9998 71.7754V71.7754C26.9998 73.6394 28.5108 75.1504 30.3748 75.1504H43.4248C45.2888 75.1504 46.7998 73.6394 46.7998 71.7754V71.7754C46.7998 69.9114 45.2888 68.4004 43.4248 68.4004Z" stroke="black" stroke-width="5" stroke-linecap="round"/>
<path d="M81.8999 95.3992L95.3999 72.4492L108.9 95.3992C108.9 95.3992 106.346 96.3631 105.3 97.6492C103.928 99.3355 103.95 103.049 103.95 103.049V123.299H95.3999H86.8499V103.049C86.8499 103.049 86.8716 99.3355 85.4999 97.6492C84.4537 96.3631 81.8999 95.3992 81.8999 95.3992Z" fill="white"/>
<path d="M95.3999 72.4492L81.8999 95.3992C81.8999 95.3992 84.4537 96.3631 85.4999 97.6492C86.8716 99.3355 86.8499 103.049 86.8499 103.049V123.299H95.3999H103.95V103.049C103.95 103.049 103.928 99.3355 105.3 97.6492C106.346 96.3631 108.9 95.3992 108.9 95.3992L95.3999 72.4492ZM95.3999 72.4492C95.3999 72.4492 95.3999 82.8713 95.3999 89.5492M95.3999 89.5492C93.1631 89.5492 91.3499 91.3625 91.3499 93.5992C91.3499 95.836 93.1631 97.6492 95.3999 97.6492C97.6367 97.6492 99.4499 95.836 99.4499 93.5992C99.4499 91.3625 97.6367 89.5492 95.3999 89.5492Z" stroke="black" stroke-width="5"/>
</svg>
