<svg width="144" height="144" viewBox="0 0 144 144" fill="none" xmlns="http://www.w3.org/2000/svg">
<rect width="144" height="144" fill="white"/>
<path d="M26.4035 33.9945H61.66M26.4035 42.4157H45.5872M49.735 42.4157H61.66M20.7002 48.3106V28.0996C20.7002 26.995 21.5956 26.0996 22.7002 26.0996H66.4002C67.5048 26.0996 68.4002 26.995 68.4002 28.0996V48.3106C68.4002 49.4152 67.5048 50.3106 66.4002 50.3106H35.3076C34.772 50.3106 34.2587 50.5255 33.8828 50.907L29.8283 55.023C28.5727 56.2975 26.4035 55.4085 26.4035 53.6194V52.3106C26.4035 51.206 25.508 50.3106 24.4035 50.3106H22.7002C21.5956 50.3106 20.7002 49.4152 20.7002 48.3106Z" stroke="black" stroke-width="5"/>
<path d="M117.489 33.9945H81.5672M117.489 42.4157H97.9433M93.7172 42.4157H81.5672M123.3 48.3106V28.0996C123.3 26.995 122.404 26.0996 121.3 26.0996H76.6998C75.5952 26.0996 74.6998 26.995 74.6998 28.0996V48.3106C74.6998 49.4152 75.5952 50.3106 76.6998 50.3106H108.444C108.973 50.3106 109.48 50.5203 109.855 50.8938L114.077 55.1005C115.338 56.3569 117.489 55.4637 117.489 53.6837V52.3106C117.489 51.206 118.384 50.3106 119.489 50.3106H121.3C122.404 50.3106 123.3 49.4152 123.3 48.3106Z" stroke="black" stroke-width="5"/>
<path d="M48.6001 104.4H72.0001L95.4001 104.4" stroke="black" stroke-width="5" stroke-linecap="round"/>
<path d="M60.2998 102.6V98.1004C60.2998 91.6387 65.5381 86.4004 71.9998 86.4004V86.4004C78.4615 86.4004 83.6998 91.6387 83.6998 98.1004V102.6" stroke="black" stroke-width="5" stroke-linecap="round"/>
<path d="M18.8999 118.8V102.15C18.8999 95.9372 23.9367 90.9004 30.1499 90.9004V90.9004C36.3631 90.9004 41.3999 95.9372 41.3999 102.15V118.8" stroke="black" stroke-width="5" stroke-linecap="round"/>
<path d="M102.6 118.8V102.15C102.6 95.9372 107.637 90.9004 113.85 90.9004V90.9004C120.063 90.9004 125.1 95.9372 125.1 102.15V118.8" stroke="black" stroke-width="5" stroke-linecap="round"/>
<ellipse cx="72.0001" cy="78.3004" rx="9.9" ry="9.9" fill="white" stroke="black" stroke-width="5"/>
<ellipse cx="113.4" cy="78.7496" rx="11.7" ry="12.15" fill="white" stroke="black" stroke-width="5"/>
<ellipse cx="30.5999" cy="78.7496" rx="11.7" ry="12.15" fill="white" stroke="black" stroke-width="5"/>
</svg>
