<svg width="144" height="144" viewBox="0 0 144 144" fill="none" xmlns="http://www.w3.org/2000/svg">
<rect width="144" height="144" fill="white"/>
<path d="M56.7002 119.7V111C56.7002 104.373 62.0728 99 68.7002 99H74.4002C81.0276 99 86.4002 104.373 86.4002 111V119.7" stroke="black" stroke-width="5" stroke-linecap="round"/>
<path d="M23.3999 113.401V108.001C23.3999 101.539 28.6382 96.3008 35.0999 96.3008V96.3008C41.5616 96.3008 46.7999 101.539 46.7999 108.001V113.401" stroke="black" stroke-width="5" stroke-linecap="round"/>
<path d="M96.2998 113.401V108.001C96.2998 101.539 101.538 96.3008 108 96.3008V96.3008C114.462 96.3008 119.7 101.539 119.7 108.001V113.401" stroke="black" stroke-width="5" stroke-linecap="round"/>
<ellipse cx="71.5499" cy="90.8992" rx="12.15" ry="11.7" fill="white" stroke="black" stroke-width="5"/>
<ellipse cx="35.1002" cy="88.6492" rx="9.9" ry="9.45" fill="white" stroke="black" stroke-width="5"/>
<ellipse cx="108" cy="88.6492" rx="9.9" ry="9.45" fill="white" stroke="black" stroke-width="5"/>
<path d="M55.6727 34.237H88.2684M55.6727 41.9564H73.4086M77.2434 41.9564H88.2684M50.3999 47.1934V29C50.3999 27.8954 51.2953 27 52.3999 27H92.4999C93.6045 27 94.4999 27.8954 94.4999 29V47.1934C94.4999 48.298 93.6045 49.1934 92.4999 49.1934H63.963C63.4304 49.1934 62.9197 49.4059 62.5443 49.7838L59.0915 53.259C57.8335 54.5252 55.6727 53.6343 55.6727 51.8494V51.1934C55.6727 50.0888 54.7773 49.1934 53.6727 49.1934H52.3999C51.2953 49.1934 50.3999 48.298 50.3999 47.1934Z" stroke="black" stroke-width="5"/>
<path d="M31.3339 55.2596V53.4596H26.1001V69.2996H31.3339V66.4196M31.3339 55.2596H33.577L35.8201 53.4596L39.1847 44.0996C39.1847 44.0996 41.0462 45.1869 41.8016 46.2596C42.579 47.3635 42.9304 48.1659 42.9232 49.4996C42.914 51.1983 41.8016 53.4596 41.8016 53.4596C44.2836 53.4596 44.9274 53.4596 47.4093 53.4596C47.4093 53.4596 49.0377 54.3348 49.6524 55.2596C50.3014 56.236 50.4001 58.1396 50.4001 58.1396L46.6616 67.4996C45.6291 68.7023 45.2698 69.1213 44.0447 69.2996H34.6986L31.3339 66.4196M31.3339 55.2596V66.4196" stroke="black" stroke-width="5" stroke-linecap="round" stroke-linejoin="round"/>
<path d="M115.366 60.84V62.64H120.6V46.8H115.366V49.68M115.366 60.84H113.123L110.88 62.64L107.515 72C107.515 72 105.654 70.9127 104.899 69.84C104.121 68.7362 103.77 67.9337 103.777 66.6C103.786 64.9013 104.899 62.64 104.899 62.64C102.417 62.64 101.773 62.64 99.2909 62.64C99.2909 62.64 97.6625 61.7648 97.0478 60.84C96.3987 59.8636 96.3001 57.96 96.3001 57.96L100.039 48.6C101.071 47.3973 101.43 46.9783 102.655 46.8H112.002L115.366 49.68M115.366 60.84V49.68" stroke="black" stroke-width="5" stroke-linecap="round" stroke-linejoin="round"/>
</svg>
