<svg width="144" height="144" viewBox="0 0 144 144" fill="none" xmlns="http://www.w3.org/2000/svg">
<rect width="144" height="144" fill="white"/>
<path d="M27 73.5C27 73.5 27 58.5 27 51.5C27 44.5 30 41 37.5 41C45 41 118 41 118 41M118 41L98 21M118 41L98 61" stroke="black" stroke-width="5" stroke-linecap="round"/>
<path d="M117 70C117 70 117 85 117 92C117 99 114 102.5 106.5 102.5C99 102.5 26 102.5 26 102.5M26 102.5L46 122.5M26 102.5L46 82.5" stroke="black" stroke-width="5" stroke-linecap="round"/>
</svg>
