<svg width="144" height="144" viewBox="0 0 144 144" fill="none" xmlns="http://www.w3.org/2000/svg">
<rect width="144" height="144" fill="white"/>
<path d="M58.7401 98.9996C58.7401 98.9996 59.2717 95.3217 58.7401 93.066C58.1363 90.5041 56.9117 89.379 55.5376 87.1325C53.8283 84.338 50.6892 80.286 50.6892 80.286C46.5813 75.4989 44.1001 69.2812 44.1001 62.4853C44.1001 47.3606 56.3899 35.0996 71.5501 35.0996C86.7103 35.0996 99.0001 47.3606 99.0001 62.4853C99.0001 69.2812 96.5189 75.4989 92.411 80.286C92.411 80.286 89.3621 84.395 87.5626 87.1325C86.067 89.4077 84.5857 90.4319 83.9026 93.066C83.3209 95.3094 83.9026 98.9996 83.9026 98.9996" stroke="black" stroke-width="5" stroke-linecap="round"/>
<path d="M57.6001 105.301H86.4001" stroke="black" stroke-width="5" stroke-linecap="round"/>
<path d="M57.6001 114.301H86.4001" stroke="black" stroke-width="5" stroke-linecap="round"/>
<path d="M63 123.301H81" stroke="black" stroke-width="5" stroke-linecap="round"/>
<path d="M97.2002 35.0996L106.377 26.0996M104.541 44.5496L116.471 37.7996M108.671 55.7996L120.6 53.9996" stroke="black" stroke-width="5" stroke-linecap="round"/>
<path d="M46.7998 35.0996L37.6233 26.0996M39.4586 44.5496L27.5292 37.7996M35.3292 55.7996L23.3998 53.9996" stroke="black" stroke-width="5" stroke-linecap="round"/>
</svg>
